HIERARCHY
ROOT Hips
{
    OFFSET 0.000000 0.000000 0.000000
    CHANNELS 6 Xposition Yposition Zposition Zrotation Xrotation Yrotation
    JOINT Spine
    {
        OFFSET -0.000000 0.081317 0.000000
        CHANNELS 3 Zrotation Xrotation Yrotation
        JOINT Spine1
        {
            OFFSET -0.000000 0.225200 0.000000
            CHANNELS 3 Zrotation Xrotation Yrotation
            JOINT Neck
            {
                OFFSET -0.000000 0.224275 0.020389
                CHANNELS 3 Zrotation Xrotation Yrotation
                JOINT Head
                {
                    OFFSET -0.000000 0.138833 -0.019833
                    CHANNELS 3 Zrotation Xrotation Yrotation
                    End Site
                    {
                        OFFSET -0.000000 0.198333 0.000000
                    }
                }
            }
            JOINT LeftShoulder
            {
                OFFSET 0.039732 0.208237 -0.000812
                CHANNELS 3 Zrotation Xrotation Yrotation
                JOINT LeftArm
                {
                    OFFSET 0.110955 0.000000 0.000000
                    CHANNELS 3 Zrotation Xrotation Yrotation
                    JOINT LeftForeArm
                    {
                        OFFSET 0.324523 0.000000 0.000000
                        CHANNELS 3 Zrotation Xrotation Yrotation
                        JOINT LeftHand
                        {
                            OFFSET 0.302601 0.000000 0.000000
                            CHANNELS 3 Zrotation Xrotation Yrotation
                            End Site
                            {
                                OFFSET 0.148750 0.000000 0.000000
                            }
                        }
                    }
                }
            }
            JOINT RightShoulder
            {
                OFFSET -0.039598 0.208237 -0.000812
                CHANNELS 3 Zrotation Xrotation Yrotation
                JOINT RightArm
                {
                    OFFSET -0.110955 0.000000 0.000000
                    CHANNELS 3 Zrotation Xrotation Yrotation
                    JOINT RightForeArm
                    {
                        OFFSET -0.324523 0.000000 0.000000
                        CHANNELS 3 Zrotation Xrotation Yrotation
                        JOINT RightHand
                        {
                            OFFSET -0.302601 0.000000 0.000000
                            CHANNELS 3 Zrotation Xrotation Yrotation
                            End Site
                            {
                                OFFSET -0.148750 0.000000 0.000000
                            }
                        }
                    }
                }
            }
        }
    }
    JOINT LeftUpLeg
    {
        OFFSET 0.099167 0.000000 0.000000
        CHANNELS 3 Zrotation Xrotation Yrotation
        JOINT LeftLeg
        {
            OFFSET -0.000000 -0.380753 0.000000
            CHANNELS 3 Zrotation Xrotation Yrotation
            JOINT LeftFoot
            {
                OFFSET -0.000000 -0.440093 0.000000
                CHANNELS 3 Zrotation Xrotation Yrotation
                JOINT LeftToeBase
                {
                    OFFSET -0.000000 -0.064458 0.148750
                    CHANNELS 3 Zrotation Xrotation Yrotation
                    End Site
                    {
                        OFFSET -0.000000 0.000000 0.039667
                    }
                }
            }
        }
    }
    JOINT RightUpLeg
    {
        OFFSET -0.099167 0.000000 0.000000
        CHANNELS 3 Zrotation Xrotation Yrotation
        JOINT RightLeg
        {
            OFFSET -0.000000 -0.380753 0.000000
            CHANNELS 3 Zrotation Xrotation Yrotation
            JOINT RightFoot
            {
                OFFSET -0.000000 -0.440093 0.000000
                CHANNELS 3 Zrotation Xrotation Yrotation
                JOINT RightToeBase
                {
                    OFFSET -0.000000 -0.064458 0.148750
                    CHANNELS 3 Zrotation Xrotation Yrotation
                    End Site
                    {
                        OFFSET -0.000000 0.000000 0.039667
                    }
                }
            }
        }
    }
}
MOTION
Frames:    7
Frame Time:    0.010000
-0.744010    0.933374    -0.699143    -3.282920    2.795908    22.001299    -1.647541    -18.551575    -3.574607    4.605201    24.566975    -2.102678    0.685205    19.577873    1.551350    -2.744900    -22.727030    0.717119    -15.633112    5.123469    -6.015970    -59.912022    -0.007307    -17.249756    -2.272778    29.705544    -21.917072    16.816244    27.008150    -17.619221    12.083951    -0.235956    5.849853    58.673862    59.103512    -1.589820    -26.000143    -14.257300    33.077290    12.784796    -7.448795    -8.299352    0.814285    0.175128    21.092596    -0.098617    -2.813557    38.744896    20.514008    18.780268    -63.131123    0.000000    0.000000    0.000000    0.793059    3.356224    -11.166884    0.989142    -1.574221    10.734576    2.805192    20.485916    -17.288137    0.000000    0.000000    0.000000    
-0.743628    0.933336    -0.698979    -3.304339    2.800333    22.009922    -1.649617    -18.557016    -3.561739    4.610377    24.558905    -2.099040    0.704009    19.538685    1.530234    -2.753594    -22.711264    0.692970    -15.624367    5.100191    -6.026334    -59.909740    -0.012377    -17.213148    -2.294103    29.707129    -21.908892    16.796137    27.009861    -17.613453    12.095324    -0.239512    5.839795    58.629189    59.117958    -1.548425    -25.999838    -14.257794    33.098442    12.728126    -7.440964    -8.308047    0.824006    0.173688    21.101797    -0.132485    -2.743279    38.444309    20.298353    18.717400    -62.708485    0.000000    0.000000    0.000000    0.801932    3.357988    -11.186625    0.964933    -1.566231    10.745083    2.959417    20.461641    -17.342934    0.000000    0.000000    0.000000    
-0.743220    0.933326    -0.698786    -3.322976    2.798264    22.025192    -1.652044    -18.557867    -3.557663    4.621060    24.547939    -2.099387    0.680060    19.495199    1.522416    -2.718334    -22.678402    0.696331    -15.623827    5.110642    -6.017514    -59.888969    0.053919    -17.199102    -2.257845    29.670540    -21.945341    16.719099    26.995611    -17.562822    12.093930    -0.241687    5.841715    58.601704    59.146763    -1.514718    -25.995785    -14.270144    33.094963    12.687080    -7.452303    -8.304044    0.821270    0.197879    21.082973    -0.118157    -2.793000    38.638588    20.412880    18.730814    -62.994698    0.000000    0.000000    0.000000    0.804316    3.370487    -11.185366    0.961945    -1.566626    10.725924    2.884973    20.484154    -17.308538    0.000000    0.000000    0.000000    
-0.742815    0.933291    -0.698626    -3.353549    2.802248    22.043118    -1.648604    -18.566603    -3.554558    4.641679    24.534655    -2.102450    0.697870    19.494564    1.500563    -2.745507    -22.708378    0.664346    -15.620317    5.120238    -6.023690    -59.896461    0.037326    -17.197065    -2.231421    29.716578    -21.933018    16.587465    27.073238    -17.509069    12.065044    -0.182854    5.842680    58.526676    59.146217    -1.407441    -26.018524    -14.279411    33.085751    12.709697    -7.455915    -8.279460    0.834484    0.197736    21.060255    -0.131815    -2.770616    38.566719    20.357496    18.647036    -62.904587    0.000000    0.000000    0.000000    0.809575    3.367708    -11.165438    0.961673    -1.550347    10.704791    2.953134    20.454878    -17.349295    0.000000    0.000000    0.000000    
-0.742384    0.933277    -0.698441    -3.374990    2.802244    22.059027    -1.646325    -18.569151    -3.545053    4.654206    24.513798    -2.101197    0.705429    19.495953    1.477884    -2.761580    -22.719028    0.635436    -15.627892    5.134486    -6.020579    -59.875607    0.034212    -17.198246    -2.280056    29.605274    -21.928915    16.517160    26.949316    -17.594906    12.058162    -0.179190    5.853062    58.534588    59.134171    -1.414680    -26.015583    -14.277325    33.103157    12.768581    -7.455460    -8.287049    0.841702    0.211815    21.038826    -0.154815    -2.748117    38.464249    20.245897    18.659973    -62.710583    0.000000    0.000000    0.000000    0.807665    3.379884    -11.146246    0.961731    -1.549585    10.692435    2.989529    20.442730    -17.383608    0.000000    0.000000    0.000000    
-0.741950    0.933238    -0.698273    -3.405202    2.808894    22.073252    -1.661129    -18.552441    -3.524082    4.723228    24.451334    -2.105866    0.651656    19.509151    1.466037    -2.731703    -22.752661    0.630755    -15.641609    5.169753    -6.032567    -59.897339    -0.005445    -17.212831    -2.313907    29.638342    -21.888002    16.547155    26.969198    -17.630295    12.024513    -0.164670    5.807685    58.516468    59.144802    -1.397385    -26.027491    -14.256105    33.135937    12.817385    -7.425056    -8.284515    0.843622    0.217602    21.022274    -0.142800    -2.770493    38.563263    20.282612    18.602652    -62.875481    0.000000    0.000000    0.000000    0.806312    3.373626    -11.091060    0.969208    -1.530287    10.621492    2.970890    20.438986    -17.378368    0.000000    0.000000    0.000000    
-0.741529    0.933209    -0.698138    -3.438077    2.824772    22.087605    -1.646827    -18.565933    -3.517733    4.726698    24.418386    -2.103857    0.614767    19.508963    1.451329    -2.670035    -22.754265    0.634933    -15.648462    5.215432    -6.054649    -59.886105    -0.048916    -17.220005    -2.238636    29.741364    -21.927435    16.301661    27.148993    -17.421324    12.028537    -0.165598    5.832268    58.534275    59.137276    -1.428464    -26.010872    -14.280468    33.166035    12.745452    -7.443155    -8.291182    0.851146    0.210102    21.008450    -0.155523    -2.760314    38.459263    20.225296    18.565329    -62.748837    0.000000    0.000000    0.000000    0.803709    3.360321    -11.060506    0.975249    -1.517581    10.610753    2.960942    20.463194    -17.403605    0.000000    0.000000    0.000000    
